<svg height="512" viewBox="0 0 512 512" width="512" xmlns="http://www.w3.org/2000/svg"><g id="FilledOutline"><path d="m308.583 170.074 147.417-130.074 24 24-128 145.071z" fill="#ccdce5"/><path d="m144 96h136v72h-136z" fill="#0093ba"/><path d="m88 64h64v104h-64z" fill="#ccdce5"/><path d="m56 160h304v208h-304z" fill="#88bf40"/><path d="m96 248h96v120h-96z" fill="#ccdce5"/><path d="m256 208h144v168h-144z" fill="#ccdce5"/><path d="m16 360h480v136h-480z" fill="#ecaf4a"/><path d="m16 360h480v32h-480z" fill="#d18b29"/><path d="m288 272h80v32h-80z" fill="#798b9b"/><path d="m304 304v24l24 24 24-24v-24z" fill="#abbac2"/><path d="m376 384h120v16h-120z"/><path d="m16 384h264v16h-264z"/><path d="m40 416h16v16h-16z"/><path d="m72 448h16v16h-16z"/><path d="m136 416h16v16h-16z"/><path d="m192 456h16v16h-16z"/><path d="m256 432h16v16h-16z"/><path d="m456 456h16v16h-16z"/><path d="m424 416h16v16h-16z"/><path d="m384 456h16v16h-16z"/><path d="m298.343 333.657 21.657 21.657v14.92l-18.53 6.177 5.06 15.178 13.47-4.489v15.135l-18.53 6.177 5.06 15.178 13.47-4.49v15.135l-18.53 6.177 5.06 15.178 13.47-4.49v20.9h16v-26.234l18.53-6.177-5.06-15.178-13.47 4.489v-15.134l18.53-6.177-5.06-15.178-13.47 4.489v-15.134l18.53-6.177-5.06-15.178-13.47 4.489v-9.587l21.657-21.657a8 8 0 0 0 2.343-5.656v-16h8a8 8 0 0 0 8-8v-32a8 8 0 0 0 -8-8h-80a8 8 0 0 0 -8 8v32a8 8 0 0 0 8 8h8v16a8 8 0 0 0 2.343 5.657zm45.657-8.97-16 16-16-16v-12.687h32zm-48-44.687h64v16h-64z"/><path d="m408 248h16v-16h-16v-16h16v-16h-192v16h16v16h-16v16h16v104h-232v16h280v-16h-32v-104h128v104h-32v16h136v-16h-88zm-144-16v-16h128v16z"/><path d="m64 168h288v16h16v-24a8 8 0 0 0 -8-8h-304a8 8 0 0 0 -8 8v176h16z"/><path d="m112 88h16v16h-16z"/><path d="m112 120h16v16h-16z"/><path d="m288 136v-40a8 8 0 0 0 -8-8h-120v-24a8 8 0 0 0 -8-8h-8v-24h-16v24h-16v-40h-16v40h-8a8 8 0 0 0 -8 8v72h16v-64h48v64h16v-32h112v32z"/><path d="m176 120h16v16h-16z"/><path d="m208 120h16v16h-16z"/><path d="m240 120h16v16h-16z"/><path d="m200 336v-88a8 8 0 0 0 -8-8h-96a8 8 0 0 0 -8 8v88h16v-16h80v16zm-16-80v16h-80v-16zm-80 48v-16h80v16z"/><path d="m349.293 144.822 106.364-93.851 13.372 13.372-79.729 90.364 12 10.586 54.7-62v64.707h-16v16h16v16a8 8 0 0 0 8 8 8 8 0 1 1 -8 8h-16a24 24 0 1 0 32-22.629v-9.371h16v-16h-16v-82.841l14-15.866a8 8 0 0 0 -.342-10.95l-24-24a8 8 0 0 0 -10.951-.343l-112 98.824z"/><path d="m80 184h24v16h-24z"/><path d="m128 184h24v16h-24z"/><path d="m176 184h24v16h-24z"/></g></svg>